<svg t="1679535330479" class="icon" viewBox="0 0 1024 1024" version="1.1" xmlns="http://www.w3.org/2000/svg"
     p-id="14724" width="200" height="200">
  <path
    d="M130.4576 531.43552h35.328v-35.34848h-35.328zM848.7936 531.43552h35.328v-35.34848h-35.328zM767.0784 290.74432l-24.9856-25.00608 24.7296-24.70912 24.9856 24.9856zM242.50368 283.38176l-24.7296-25.9072 25.56928-24.39168 24.7296 25.9072zM496.6912 154.60352h35.33824v-35.328h-35.33824zM253.6448 788.86912l-24.9856-25.00608 24.7296-24.71936 24.9856 24.9856zM780.66688 796.81536l-24.7296-25.9072L781.5168 746.496l24.7296 25.9072zM494.336 908.26752h35.33824v-35.328h-35.33824z"
    fill="#0E5DA1" p-id="14725"></path>
  <path
    d="M446.0544 947.712h133.0688v-117.76c0-7.30112 4.49536-13.84448 11.29472-16.47616l88.32-34.1504a17.64352 17.64352 0 0 1 18.688 3.81952l75.96032 73.9328 93.696-91.8528-75.34592-73.34912a17.64352 17.64352 0 0 1-3.95264-19.5584l36.5056-85.9648a17.664 17.664 0 0 1 16.26112-10.76224H947.712V447.232H839.3728c-7.15776 0-13.60896-4.32128-16.34304-10.9568l-35.328-85.95456c-2.73408-6.66624-1.13664-14.34624 4.03456-19.37408l75.29472-73.28768-93.57312-90.78784-77.2096 75.1616a17.68448 17.68448 0 0 1-19.1488 3.64544l-87.1424-36.52608a17.664 17.664 0 0 1-10.83392-16.2816V76.288H446.0544v117.76c0 7.30112-4.48512 13.84448-11.28448 16.47616l-88.32 34.1504a17.64352 17.64352 0 0 1-18.688-3.81952l-76.032-73.984-93.65504 90.86976 75.4688 74.47552c5.1712 5.12 6.69696 12.87168 3.81952 19.5584l-36.51584 84.77696a17.63328 17.63328 0 0 1-16.22016 10.68032H76.288V575.5904h109.5168c7.19872 0 13.68064 4.36224 16.37376 11.01824l35.328 87.16288a17.664 17.664 0 0 1-4.13696 19.36384l-75.18208 72.18176 93.5936 91.7504 77.13792-75.10016a17.69472 17.69472 0 0 1 19.1488-3.64544l87.15264 36.52608c6.56384 2.74432 10.83392 9.1648 10.83392 16.2816V947.712zM596.7872 983.04H428.3904a17.67424 17.67424 0 0 1-17.664-17.664V842.88512l-65.536-27.4432-81.12128 78.98112c-6.8608 6.68672-17.8176 6.66624-24.6784-0.04096L120.45312 777.79968a17.65376 17.65376 0 0 1 0.13312-25.35424l79.68768-76.4928-26.368-65.03424H58.624A17.664 17.664 0 0 1 40.96 593.2544V429.568c0-9.74848 7.90528-17.664 17.664-17.664h114.3808l27.136-63.0272-79.73888-78.66368a17.67424 17.67424 0 0 1 0.1024-25.26208l118.95808-115.38432c6.8608-6.66624 17.7664-6.656 24.60672 0l80.20992 78.06976 66.4576-25.7024V58.63424c0-9.74848 7.90528-17.664 17.65376-17.664H596.7872c9.75872 0 17.664 7.91552 17.664 17.664v122.49088l65.536 27.4432 81.11104-78.98112a17.664 17.664 0 0 1 24.6272-0.01024L904.66304 244.9408a17.64352 17.64352 0 0 1 0.02048 25.344l-79.75936 77.63968 26.28608 63.96928h114.176c9.74848 0 17.65376 7.91552 17.65376 17.664v163.6864c0 9.74848-7.90528 17.664-17.664 17.664H852.24448l-27.20768 64.07168 79.64672 77.53728a17.67424 17.67424 0 0 1 0.0512 25.27232L785.79712 894.38208c-6.8608 6.7072-17.8176 6.72768-24.6784 0.04096l-80.20992-78.05952-66.4576 25.7024v123.31008c0 9.74848-7.90528 17.664-17.664 17.664z"
    fill="#FFFFFF" p-id="14726"></path>
  <path
    d="M747.52 512c0 130.07872-105.45152 235.53024-235.52 235.53024s-235.52-105.45152-235.52-235.52C276.48 381.92128 381.93152 276.48 512 276.48s235.52 105.45152 235.52 235.52"
    fill="#FFE7CF" p-id="14727"></path>
  <path
    d="M309.4528 529.67424h-35.328V512c0-131.1744 106.71104-237.8752 237.8752-237.8752h17.664v35.328H512c-111.68768 0-202.5472 90.85952-202.5472 202.5472v17.664zM512 749.8752h-17.664v-35.328H512c111.68768 0 202.5472-90.85952 202.5472-202.5472v-17.664h35.328V512c0 131.16416-106.71104 237.8752-237.8752 237.8752M615.04512 467.58912l-75.1104-75.1104 40.96-40.96 75.1104 75.10016-40.96 40.97024z m71.95648-59.92448L599.8592 320.512a26.85952 26.85952 0 0 0-37.91872 0L508.928 373.53472a26.85952 26.85952 0 0 0 0.01024 37.91872l31.66208 31.66208L429.568 554.15808v-0.01024l-21.38112 21.38112-30.43328 30.43328-24.9856 24.97536-30.6176 30.6176 24.9856 24.9856 30.6176-30.6176 62.4128 62.40256 24.9856-24.9856-62.4128-62.40256 26.8288-26.8288 37.6832 37.67296 24.9856-24.9856-37.6832-37.66272 111.02208-111.03232 30.50496 30.48448c5.2224 5.2224 12.09344 7.84384 18.95424 7.84384 6.8608 0 13.73184-2.6112 18.97472-7.84384l53.00224-53.00224a26.85952 26.85952 0 0 0 0-37.91872z"
    fill="#FFA950" p-id="14728"></path>
</svg>
