<svg xmlns="http://www.w3.org/2000/svg" width="200" height="200" class="icon" viewBox="0 0 1024 1024"><path fill="#0E5DA1" d="M130.458 531.436h35.328v-35.349h-35.328zm718.336 0h35.328v-35.349h-35.328zm-81.716-240.692-24.985-25.006 24.73-24.709 24.985 24.986zm-524.574-7.362-24.73-25.907 25.57-24.392 24.729 25.907zM496.69 154.604h35.338v-35.328H496.69zM253.645 788.869l-24.986-25.006 24.73-24.72 24.985 24.986zm527.022 7.946-24.73-25.907 25.58-24.412 24.73 25.907zM494.336 908.268h35.338V872.94h-35.338z"/><path fill="#FFF" d="M446.054 947.712h133.07v-117.76a17.67 17.67 0 0 1 11.294-16.476l88.32-34.15a17.64 17.64 0 0 1 18.688 3.819l75.96 73.933 93.696-91.853-75.346-73.35a17.64 17.64 0 0 1-3.952-19.558l36.505-85.964a17.66 17.66 0 0 1 16.261-10.763h107.162V447.232h-108.34a17.68 17.68 0 0 1-16.342-10.957l-35.328-85.954a17.68 17.68 0 0 1 4.034-19.374l75.295-73.288-93.573-90.788-77.21 75.162a17.68 17.68 0 0 1-19.148 3.645l-87.143-36.526a17.66 17.66 0 0 1-10.834-16.282V76.288H446.054v117.76a17.66 17.66 0 0 1-11.284 16.476l-88.32 34.15a17.64 17.64 0 0 1-18.688-3.819l-76.032-73.984-93.655 90.87 75.469 74.475c5.17 5.12 6.697 12.872 3.82 19.559l-36.517 84.777a17.63 17.63 0 0 1-16.22 10.68H76.288V575.59h109.517c7.199 0 13.68 4.363 16.374 11.019l35.328 87.163a17.66 17.66 0 0 1-4.137 19.363l-75.182 72.182 93.593 91.75 77.138-75.1a17.7 17.7 0 0 1 19.149-3.645l87.152 36.526a17.64 17.64 0 0 1 10.834 16.282zm150.733 35.328H428.39a17.674 17.674 0 0 1-17.664-17.664v-122.49l-65.536-27.444-81.12 78.981c-6.862 6.687-17.818 6.666-24.68-.04L120.454 777.8a17.654 17.654 0 0 1 .133-25.355l79.688-76.492-26.368-65.035H58.624a17.664 17.664 0 0 1-17.664-17.664V429.568c0-9.748 7.905-17.664 17.664-17.664h114.38l27.137-63.027-79.74-78.664a17.674 17.674 0 0 1 .103-25.262l118.958-115.384c6.861-6.667 17.767-6.656 24.607 0l80.21 78.07 66.458-25.703v-123.3c0-9.748 7.905-17.664 17.653-17.664h168.397c9.759 0 17.664 7.916 17.664 17.664v122.491l65.536 27.443 81.111-78.98a17.664 17.664 0 0 1 24.627-.011l118.938 115.364a17.644 17.644 0 0 1 .02 25.344l-79.759 77.64 26.286 63.969h114.176c9.749 0 17.654 7.915 17.654 17.664v163.686c0 9.749-7.905 17.664-17.664 17.664H852.244l-27.207 64.072 79.647 77.537a17.674 17.674 0 0 1 .05 25.272L785.798 894.382c-6.86 6.707-17.817 6.728-24.678.041l-80.21-78.06-66.458 25.703v123.31c0 9.748-7.905 17.664-17.664 17.664z"/><path fill="#FFE7CF" d="M747.52 512c0 130.079-105.452 235.53-235.52 235.53S276.48 642.08 276.48 512.01c0-130.089 105.452-235.53 235.52-235.53S747.52 381.932 747.52 512"/><path fill="#FFA950" d="M309.453 529.674h-35.328V512c0-131.174 106.71-237.875 237.875-237.875h17.664v35.328H512c-111.688 0-202.547 90.86-202.547 202.547v17.664zM512 749.875h-17.664v-35.328H512c111.688 0 202.547-90.86 202.547-202.547v-17.664h35.328V512c0 131.164-106.71 237.875-237.875 237.875M615.045 467.59l-75.11-75.11 40.96-40.96 75.11 75.1zm71.957-59.924-87.143-87.153a26.86 26.86 0 0 0-37.919 0l-53.012 53.023a26.86 26.86 0 0 0 .01 37.918l31.662 31.663-111.032 111.042v-.01l-21.381 21.381-30.433 30.433-24.986 24.976-30.618 30.617 24.986 24.986 30.618-30.618 62.412 62.403 24.986-24.986-62.413-62.402 26.829-26.83 37.683 37.674 24.986-24.986-37.683-37.663 111.022-111.032 30.505 30.485c5.222 5.222 12.093 7.843 18.954 7.843 6.86 0 13.732-2.61 18.975-7.843l53.002-53.003a26.86 26.86 0 0 0 0-37.918z"/></svg>