<svg xmlns="http://www.w3.org/2000/svg" fill="none" viewBox="0 0 20 22"><path fill="url(#a)" d="m4.631 14.493-1.313 1.313a.62.62 0 0 0 0 .876.62.62 0 0 0 .876 0l1.313-1.313a.62.62 0 0 0 0-.876.62.62 0 0 0-.876 0m-.376-9.355a.626.626 0 0 0 .883-.883L3.813 2.929a.626.626 0 0 0-.884.884zM2.5 9.375H.625a.625.625 0 0 0 0 1.25H2.5A.623.623 0 0 0 3.125 10a.627.627 0 0 0-.625-.625m7.5-6.25a.623.623 0 0 0 .625-.625V.625A.623.623 0 0 0 10 0a.623.623 0 0 0-.625.625V2.5c0 .346.281.625.625.625m6.014 1.737 1.313-1.313a.62.62 0 0 0 0-.876.62.62 0 0 0-.876 0l-1.313 1.313a.62.62 0 0 0 0 .876.617.617 0 0 0 .876 0m3.361 4.513H17.5a.623.623 0 0 0-.625.625c0 .346.279.625.625.625h1.875a.625.625 0 0 0 0-1.25m-3.63 5.487a.626.626 0 0 0-.883.883l1.325 1.326a.626.626 0 0 0 .884-.884zM10 4.372a5.63 5.63 0 0 0-5.63 5.63 5.63 5.63 0 0 0 5.63 5.63 5.63 5.63 0 0 0 5.63-5.63A5.63 5.63 0 0 0 10 4.372m0 12.503a.623.623 0 0 0-.625.625v1.875c0 .346.279.625.625.625a.623.623 0 0 0 .625-.625V17.5a.625.625 0 0 0-.625-.625"/><defs><linearGradient id="a" x1="8.333" x2="12.5" y1="4.167" y2="18.333" gradientUnits="userSpaceOnUse"><stop stop-color="#FBC949"/><stop offset="1" stop-color="#E57711"/></linearGradient></defs></svg>