<svg xmlns="http://www.w3.org/2000/svg" width="28" height="28" fill="none"><path fill="#D0D0D0" d="M24.988 10.852a.933.933 0 0 0-1.457-1.165C23.497 9.729 20.011 14 14 14c-5.977 0-9.498-4.272-9.53-4.313a.934.934 0 0 0-1.458 1.165c.058.072.592.72 1.55 1.523l-1.636 1.993 1.442 1.184 1.695-2.066c.703.457 1.522.906 2.453 1.29l-.94 2.599 1.755.634.952-2.635c.858.23 1.788.387 2.784.451v2.838h1.866v-2.838a14.3 14.3 0 0 0 2.833-.465l.962 2.632 1.752-.641-.948-2.592a15 15 0 0 0 2.337-1.23l1.685 2.079 1.449-1.175-1.625-2.006c.997-.828 1.551-1.502 1.61-1.575"/></svg>