<svg xmlns="http://www.w3.org/2000/svg" width="28" height="28" fill="none"><mask id="a" width="28" height="28" x="0" y="0" maskUnits="userSpaceOnUse" style="mask-type:alpha"><path fill="#D9D9D9" d="M0 0h28v28H0z"/></mask><g mask="url(#a)"><path fill="#D0D0D0" d="M24.626 13.267c-.003-1.526-.965-2.856-2.352-3.297-.538-.172-1.097-.197-1.658-.172-.249.012-.39.023-.36-.355.068-.925.08-1.862.04-2.793-.132-3.065-2.275-5.648-5.294-6.436-2.865-.747-5.933.51-7.58 3.045C6.105 5.28 6.28 7.507 6.385 9.799c-.386 0-.736-.01-1.083 0-1.824.048-3.28 1.491-3.288 3.313-.017 3.824-.02 7.648 0 11.472.011 1.86 1.458 3.38 3.306 3.391 5.362.035 10.727.032 16.089 0 1.785-.011 3.208-1.515 3.217-3.305.014-3.8.011-7.602 0-11.403Zm-9.556 5.735c-.28.212-.366.413-.358.742.02.836.015 1.676.006 2.512-.014.965-.561 1.547-1.426 1.533-.834-.012-1.355-.585-1.37-1.519-.008-.49-.014-.976 0-1.466.026-.851-.002-1.57-.77-2.257-.828-.745-.842-1.877-.355-2.916.504-1.072 1.392-1.57 2.348-1.639 1.367.014 2.458.822 2.834 1.945.372 1.12.034 2.352-.909 3.065Zm1.942-9.195c-1.211-.023-2.423-.009-3.635-.009-1.234 0-2.472-.025-3.706.012-.482.014-.576-.152-.559-.587.035-.745.003-1.493.012-2.237.026-2.332 1.861-4.174 4.167-4.185 2.31-.012 4.174 1.81 4.223 4.142.017.793-.023 1.587.011 2.377.018.418-.137.493-.513.487Z"/></g></svg>