<svg xmlns="http://www.w3.org/2000/svg" width="28" height="28" fill="none"><path fill="#D0D0D0" d="M14 21c-5.017 0-8.984-2.333-11.667-7C5.016 9.333 8.983 7 14 7c5.016 0 8.983 2.333 11.666 7-2.683 4.667-6.65 7-11.666 7Zm.233-11.667c-3.5 0-7 1.517-8.983 4.667 1.983 3.15 5.483 4.667 8.983 4.667 3.5 0 6.533-1.517 8.517-4.667-1.984-3.15-5.017-4.667-8.517-4.667ZM14 17.5c-1.984 0-3.5-1.517-3.5-3.5s1.516-3.5 3.5-3.5c1.983 0 3.5 1.517 3.5 3.5s-1.517 3.5-3.5 3.5Zm0-2.333c.7 0 1.166-.467 1.166-1.167S14.7 12.833 14 12.833 12.833 13.3 12.833 14 13.3 15.167 14 15.167Z"/></svg>